<svg xmlns="http://www.w3.org/2000/svg" width="36" height="36" viewBox="0 0 36 36">
  <g id="Btn_send" transform="translate(37.227 38) rotate(180)">
    <rect id="Rectangle" width="36" height="36" rx="10" transform="translate(1.227 2)" fill="#f5f5f8"/>
    <path id="Fill_1016" data-name="Fill 1016" d="M.133.133a.455.455,0,0,1,.643,0L5,4.36,9.224.133a.455.455,0,0,1,.643.645L5.643,5,9.867,9.224a.455.455,0,0,1-.643.645L5,5.642.776,9.869a.455.455,0,1,1-.643-.645L4.357,5,.133.778a.457.457,0,0,1,0-.645" transform="translate(24.227 25.001) rotate(180)" fill="#696974" stroke="#696974" stroke-width="0.5"/>
  </g>
</svg>
